<svg version="1.1" id="Layer_1" xmlns="http://www.w3.org/2000/svg" xmlns:xlink="http://www.w3.org/1999/xlink" x="0px" y="0px"
	 width="100%" viewBox="0 0 826 826" enable-background="new 0 0 826 826" xml:space="preserve">
<path fill="#000000" opacity="1.000000" stroke="none" 
	d="
M465.000000,827.000000 
	C310.000061,827.000000 155.500092,827.000000 1.000104,827.000000 
	C1.000069,551.666809 1.000069,276.333588 1.000035,1.000288 
	C276.333130,1.000192 551.666260,1.000192 826.999512,1.000096 
	C826.999695,276.333038 826.999695,551.666077 826.999878,826.999573 
	C706.500000,827.000000 586.000000,827.000000 465.000000,827.000000 
M227.516373,463.452362 
	C225.684769,463.452362 223.811874,463.702393 222.028885,463.407990 
	C215.204056,462.281036 211.322266,465.128296 208.716415,471.488831 
	C205.772537,478.674347 206.777573,480.732910 214.807846,480.734375 
	C251.606247,480.741089 288.404663,480.738525 325.203064,480.732635 
	C326.532715,480.732422 328.149475,481.124939 329.125671,480.518616 
	C330.645935,479.574310 332.623535,478.058411 332.839966,476.558563 
	C333.610199,471.221710 326.286530,463.460480 320.923157,463.458344 
	C290.119080,463.446075 259.314972,463.452393 227.516373,463.452362 
M214.866928,375.927612 
	C208.813553,376.236908 207.386734,378.373199 209.709534,383.724457 
	C210.435806,385.397644 211.457962,386.960449 212.031464,388.678345 
	C213.440887,392.900299 216.077408,394.300323 220.637863,394.273315 
	C254.445694,394.073059 288.255524,394.101685 322.063904,394.247528 
	C326.124878,394.265045 328.762329,393.205902 330.048523,389.243256 
	C330.504608,387.838165 331.364929,386.568695 331.982544,385.210846 
	C335.332458,377.846436 334.143463,375.930664 326.210663,375.929657 
	C289.403809,375.925018 252.596954,375.927612 214.866928,375.927612 
M267.500519,348.695435 
	C260.014313,348.695435 252.527985,348.667236 245.041962,348.702026 
	C233.787140,348.754364 235.029449,347.441620 231.785706,358.856598 
	C229.944351,365.336456 231.178497,366.990265 237.940063,366.995239 
	C258.069611,367.010010 278.199188,367.000519 298.328735,367.000519 
	C311.693420,367.000519 311.807526,366.712311 308.013153,353.966827 
	C306.869171,350.124176 304.947266,348.568939 300.939758,348.634674 
	C290.129272,348.812042 279.313965,348.695435 267.500519,348.695435 
M265.876465,402.919403 
	C262.244324,402.674469 260.321808,404.270996 259.986511,407.994446 
	C258.765320,421.555786 257.455566,435.109131 256.172119,448.664825 
	C255.800507,452.589752 257.517822,454.678070 261.509125,454.701447 
	C266.827332,454.732605 272.146240,454.752136 277.464081,454.699615 
	C282.906982,454.645874 284.292450,453.114899 283.808441,447.762177 
	C282.836304,437.012054 282.068909,426.236359 280.781158,415.523621 
	C279.198517,402.357910 282.035889,402.782013 265.876465,402.919403 
M223.864716,452.429718 
	C225.085175,453.181152 226.274658,454.514008 227.531570,454.580994 
	C232.345795,454.837555 237.241440,455.117584 241.977631,454.459717 
	C243.673965,454.224091 246.093292,451.497437 246.329010,449.668793 
	C248.093262,435.982483 249.421539,422.239258 250.818420,408.506897 
	C251.164352,405.106079 249.656708,403.037933 246.038788,403.004639 
	C241.543991,402.963257 236.987305,402.568817 232.583405,403.202606 
	C230.816635,403.456909 228.503372,405.789734 227.984680,407.615570 
	C226.908142,411.405212 226.784698,415.480804 226.412430,419.452301 
	C225.405945,430.190277 224.474304,440.935272 223.864716,452.429718 
M289.385132,410.466400 
	C290.664734,422.868591 291.929230,435.272369 293.233887,447.671936 
	C293.586792,451.026093 293.797394,454.618103 298.495178,454.690216 
	C302.986359,454.759155 307.482788,454.805939 311.970612,454.663025 
	C315.128723,454.562439 317.041718,452.745544 316.720795,449.527466 
	C315.318695,435.467102 313.763245,421.422028 312.277008,407.369965 
	C311.926788,404.058655 309.935425,402.866455 306.822479,402.908600 
	C302.996399,402.960419 299.166107,403.014221 295.342957,402.895386 
	C290.597015,402.747955 288.519806,404.838745 289.385132,410.466400 
M461.268646,387.147614 
	C464.445190,398.430176 472.279175,404.168274 483.550934,405.585205 
	C496.671082,407.234528 508.492279,399.169037 511.419800,386.758453 
	C514.271729,374.668427 507.894409,362.253845 496.113525,358.280090 
	C477.071930,351.857239 457.466339,364.567322 461.268646,387.147614 
M556.953674,397.484833 
	C555.125000,394.837860 553.296265,392.190887 551.465454,389.540894 
	C559.722290,384.518890 562.291565,379.518585 561.027954,371.135925 
	C559.958374,364.040680 555.413940,359.358368 548.773315,358.402313 
	C539.859619,357.118927 530.728027,357.348480 521.534607,356.921326 
	C521.534607,373.537292 521.534607,389.091156 521.534607,404.731079 
	C524.521790,404.731079 527.244873,404.731079 530.413391,404.731079 
	C530.413391,400.065430 530.413391,395.674927 530.413391,391.717346 
	C539.217041,389.130432 544.889832,391.912872 549.067871,399.667938 
	C552.535400,406.104218 553.740784,406.024170 561.577332,404.260712 
	C560.122925,402.161865 558.718567,400.135193 556.953674,397.484833 
M437.888153,405.388885 
	C441.937744,404.007904 446.055511,402.789429 449.991791,401.138306 
	C451.052917,400.693237 452.172882,398.960266 452.222290,397.774963 
	C452.455414,392.181274 452.326233,386.572510 452.326233,380.860779 
	C449.309265,380.860779 446.864044,380.860779 443.986755,380.860779 
	C443.986755,383.659454 443.986847,386.281219 443.986786,388.903015 
	C443.986572,396.381378 442.910461,397.492584 435.264832,397.909973 
	C425.649445,398.434906 417.951447,392.219757 417.069397,383.219513 
	C416.091125,373.237091 422.072845,365.884155 432.169739,364.553375 
	C438.127441,363.768127 443.070312,366.114166 447.570557,369.621826 
	C449.417572,367.746979 451.044189,366.095856 452.677307,364.438141 
	C441.746826,351.991119 418.595398,354.657379 410.950409,369.403992 
	C406.426422,378.130432 406.799103,386.900391 412.177612,394.983429 
	C418.010742,403.749786 426.886963,406.378082 437.888153,405.388885 
M575.322083,401.028625 
	C576.309998,398.762695 577.297974,396.496735 578.380737,394.013306 
	C585.068420,394.013306 591.720398,394.196655 598.354492,393.930969 
	C601.378845,393.809845 602.754517,394.914795 603.851807,397.584778 
	C607.073181,405.423431 607.174500,405.381805 616.080994,404.749573 
	C609.150574,389.380859 602.350159,374.133759 595.367249,358.970764 
	C594.125000,356.273285 586.339905,356.428101 585.104126,359.141296 
	C578.248962,374.192657 571.541687,389.311401 564.440002,405.174957 
	C568.549011,404.029968 573.137024,407.679932 575.322083,401.028625 
M368.765320,373.098114 
	C364.038177,383.557343 359.311066,394.016541 354.080444,405.589752 
	C358.402039,403.966248 363.228668,407.481293 364.389465,402.585907 
	C366.330017,394.402191 371.429779,393.049652 378.545349,393.955200 
	C381.332520,394.309906 384.231110,394.266113 387.027802,393.950623 
	C390.702545,393.536011 392.640350,394.701874 394.031494,398.343536 
	C396.984833,406.074524 397.233093,405.979675 405.759186,404.365509 
	C399.063751,389.489532 392.514984,374.614716 385.543213,359.940826 
	C384.828857,358.437256 381.595001,357.521210 379.505615,357.476105 
	C377.876953,357.440979 375.527100,358.784271 374.691650,360.213104 
	C372.440277,364.063354 370.827301,368.286896 368.765320,373.098114 
M419.122589,424.295898 
	C413.134033,423.933014 407.553192,425.140045 402.691193,428.800873 
	C393.546021,435.686584 390.648163,449.927429 396.105469,460.865387 
	C401.055084,470.785797 413.309235,475.694916 424.675446,471.774017 
	C427.904022,470.660278 429.553009,471.155548 431.109253,473.846619 
	C431.768585,474.986816 432.502991,476.256500 433.546875,476.950439 
	C434.497009,477.582062 435.912476,477.513763 437.122833,477.753998 
	C437.184845,477.293213 437.246887,476.832458 437.308929,476.371674 
	C435.356659,473.779480 433.404419,471.187286 431.431061,468.567108 
	C440.179626,460.267853 442.159454,450.555145 438.861298,439.911469 
	C436.051117,430.842560 429.331757,425.859222 419.122589,424.295898 
M545.026733,426.935272 
	C545.026733,442.001221 545.026733,457.067169 545.026733,472.386902 
	C546.429016,472.213287 547.902222,472.160339 547.911987,472.011047 
	C548.320740,465.802185 548.598450,459.584747 548.915344,452.885834 
	C551.732178,452.885834 554.549744,453.159912 557.292542,452.823792 
	C561.784912,452.273285 564.647644,453.664948 566.567993,458.004395 
	C568.434387,462.222015 570.986877,466.165588 573.532471,470.035919 
	C574.346130,471.273041 576.099426,471.892120 577.422852,472.793945 
	C577.728699,472.406311 578.034485,472.018677 578.340332,471.631042 
	C574.686829,465.259552 571.033264,458.888031 567.382629,452.521515 
	C575.453918,447.960785 578.360291,442.422028 576.585022,435.423798 
	C574.813965,428.442566 569.415100,424.748138 560.726868,424.641235 
	C556.571045,424.590088 552.410461,424.538666 548.259949,424.696198 
	C547.173401,424.737396 546.116455,425.559326 545.026733,426.935272 
M605.456848,428.018463 
	C608.751648,428.018463 612.046387,428.018463 615.600769,428.018463 
	C615.391602,426.715485 615.273743,425.244873 615.138306,425.243256 
	C606.099243,425.135101 597.058777,425.145386 588.066528,425.145386 
	C588.066528,440.885986 588.066528,456.472809 588.066528,472.330811 
	C596.460876,472.330811 604.599365,472.408997 612.731934,472.225128 
	C613.676392,472.203735 614.588074,470.730011 615.515015,469.929626 
	C615.186890,469.546997 614.858765,469.164398 614.530640,468.781799 
	C606.886169,468.781799 599.241699,468.781799 591.530762,468.781799 
	C591.530762,462.362000 591.530762,456.154449 591.530762,449.537354 
	C597.333801,449.537354 602.809814,449.658722 608.272888,449.447601 
	C609.555115,449.398041 610.793945,448.224640 612.052734,447.568268 
	C611.836060,447.052246 611.619446,446.536194 611.402771,446.020142 
	C604.774658,446.020142 598.146545,446.020142 591.357544,446.020142 
	C591.357544,439.888458 591.357544,434.112305 591.357544,428.018463 
	C595.835632,428.018463 600.153015,428.018463 605.456848,428.018463 
M363.665070,447.818298 
	C367.755829,449.163147 371.855499,450.481628 375.934845,451.860199 
	C379.992371,453.231323 383.237976,455.462402 382.907318,460.311737 
	C382.580231,465.108978 379.346252,467.719696 375.064789,468.882965 
	C367.112183,471.043671 360.796173,468.128357 355.079346,462.020569 
	C354.716125,463.747559 354.606567,465.550995 355.444855,466.589233 
	C360.663055,473.052307 371.448120,475.016541 379.097687,471.056000 
	C383.939117,468.549377 386.652588,464.600555 386.475922,459.048401 
	C386.307129,453.743134 383.189880,450.474884 378.439026,448.756622 
	C374.393005,447.293304 370.184906,446.279236 366.134216,444.827332 
	C362.230225,443.427887 358.753845,441.444336 359.148102,436.400848 
	C359.492706,431.992859 363.170593,428.713715 368.246704,427.985168 
	C374.771851,427.048645 379.403381,430.084656 383.897186,434.890076 
	C384.419647,433.362152 384.702393,431.718933 384.023438,430.748840 
	C379.949158,424.927734 371.458466,422.673187 364.316406,425.277679 
	C359.071014,427.190521 355.978333,431.200134 355.666626,436.307526 
	C355.325256,441.901093 357.995117,445.429108 363.665070,447.818298 
M499.534851,470.815704 
	C500.807098,467.400574 501.897125,463.899109 503.451050,460.617371 
	C503.990326,459.478455 505.654816,458.197449 506.847412,458.154724 
	C513.472107,457.917236 520.109863,458.040802 526.749451,458.040802 
	C527.904114,461.098938 528.734619,463.999939 530.076660,466.641022 
	C531.241821,468.934143 530.591309,473.563202 535.894348,471.914185 
	C530.247864,456.861084 524.712585,441.985931 519.018677,427.171753 
	C518.606323,426.098877 517.087219,424.888489 515.996948,424.800171 
	C514.944214,424.714905 513.140930,425.749023 512.761353,426.719391 
	C506.918610,441.655121 501.254852,456.660858 495.116882,472.786957 
	C497.112915,472.115417 498.156158,471.764435 499.534851,470.815704 
M454.581451,444.492676 
	C454.581238,438.834747 454.710205,433.171265 454.468262,427.523682 
	C454.421753,426.437836 452.919281,425.414398 452.088501,424.362152 
	C450.962921,434.977478 450.852814,444.625977 450.992493,454.270874 
	C451.146271,464.888397 457.957581,472.257202 467.912170,472.884735 
	C478.387146,473.545074 486.711792,466.827545 487.488678,455.981232 
	C488.176575,446.377289 487.784302,436.690002 487.647705,427.042633 
	C487.634796,426.129517 486.041473,425.238739 485.181885,424.337555 
	C484.090485,435.184875 484.255402,444.997375 484.040161,454.801483 
	C483.856659,463.159576 477.940094,468.981323 469.918152,469.229645 
	C461.449432,469.491821 455.417358,464.116943 454.720612,455.465851 
	C454.454163,452.157593 454.615173,448.814880 454.581451,444.492676 
z"/>
<path fill="#F3F3F3" opacity="1.000000" stroke="none" 
	d="
M228.013626,463.452393 
	C259.314972,463.452393 290.119080,463.446075 320.923157,463.458344 
	C326.286530,463.460480 333.610199,471.221710 332.839966,476.558563 
	C332.623535,478.058411 330.645935,479.574310 329.125671,480.518616 
	C328.149475,481.124939 326.532715,480.732422 325.203064,480.732635 
	C288.404663,480.738525 251.606247,480.741089 214.807846,480.734375 
	C206.777573,480.732910 205.772537,478.674347 208.716415,471.488831 
	C211.322266,465.128296 215.204056,462.281036 222.028885,463.407990 
	C223.811874,463.702393 225.684769,463.452362 228.013626,463.452393 
z"/>
<path fill="#FFFFFF" opacity="1.000000" stroke="none" 
	d="
M215.328522,375.927612 
	C252.596954,375.927612 289.403809,375.925018 326.210663,375.929657 
	C334.143463,375.930664 335.332458,377.846436 331.982544,385.210846 
	C331.364929,386.568695 330.504608,387.838165 330.048523,389.243256 
	C328.762329,393.205902 326.124878,394.265045 322.063904,394.247528 
	C288.255524,394.101685 254.445694,394.073059 220.637863,394.273315 
	C216.077408,394.300323 213.440887,392.900299 212.031464,388.678345 
	C211.457962,386.960449 210.435806,385.397644 209.709534,383.724457 
	C207.386734,378.373199 208.813553,376.236908 215.328522,375.927612 
z"/>
<path fill="#FFFFFF" opacity="1.000000" stroke="none" 
	d="
M268.000549,348.695435 
	C279.313965,348.695435 290.129272,348.812042 300.939758,348.634674 
	C304.947266,348.568939 306.869171,350.124176 308.013153,353.966827 
	C311.807526,366.712311 311.693420,367.000519 298.328735,367.000519 
	C278.199188,367.000519 258.069611,367.010010 237.940063,366.995239 
	C231.178497,366.990265 229.944351,365.336456 231.785706,358.856598 
	C235.029449,347.441620 233.787140,348.754364 245.041962,348.702026 
	C252.527985,348.667236 260.014313,348.695435 268.000549,348.695435 
z"/>
<path fill="#FBFBFB" opacity="1.000000" stroke="none" 
	d="
M266.330231,402.919312 
	C282.035889,402.782013 279.198517,402.357910 280.781158,415.523621 
	C282.068909,426.236359 282.836304,437.012054 283.808441,447.762177 
	C284.292450,453.114899 282.906982,454.645874 277.464081,454.699615 
	C272.146240,454.752136 266.827332,454.732605 261.509125,454.701447 
	C257.517822,454.678070 255.800507,452.589752 256.172119,448.664825 
	C257.455566,435.109131 258.765320,421.555786 259.986511,407.994446 
	C260.321808,404.270996 262.244324,402.674469 266.330231,402.919312 
z"/>
<path fill="#FBFBFB" opacity="1.000000" stroke="none" 
	d="
M223.688843,452.053589 
	C224.474304,440.935272 225.405945,430.190277 226.412430,419.452301 
	C226.784698,415.480804 226.908142,411.405212 227.984680,407.615570 
	C228.503372,405.789734 230.816635,403.456909 232.583405,403.202606 
	C236.987305,402.568817 241.543991,402.963257 246.038788,403.004639 
	C249.656708,403.037933 251.164352,405.106079 250.818420,408.506897 
	C249.421539,422.239258 248.093262,435.982483 246.329010,449.668793 
	C246.093292,451.497437 243.673965,454.224091 241.977631,454.459717 
	C237.241440,455.117584 232.345795,454.837555 227.531570,454.580994 
	C226.274658,454.514008 225.085175,453.181152 223.688843,452.053589 
z"/>
<path fill="#FBFBFB" opacity="1.000000" stroke="none" 
	d="
M289.339539,410.029236 
	C288.519806,404.838745 290.597015,402.747955 295.342957,402.895386 
	C299.166107,403.014221 302.996399,402.960419 306.822479,402.908600 
	C309.935425,402.866455 311.926788,404.058655 312.277008,407.369965 
	C313.763245,421.422028 315.318695,435.467102 316.720795,449.527466 
	C317.041718,452.745544 315.128723,454.562439 311.970612,454.663025 
	C307.482788,454.805939 302.986359,454.759155 298.495178,454.690216 
	C293.797394,454.618103 293.586792,451.026093 293.233887,447.671936 
	C291.929230,435.272369 290.664734,422.868591 289.339539,410.029236 
z"/>
<path fill="#CCAFF5" opacity="1.000000" stroke="none" 
	d="
M461.179260,386.750183 
	C457.466339,364.567322 477.071930,351.857239 496.113525,358.280090 
	C507.894409,362.253845 514.271729,374.668427 511.419800,386.758453 
	C508.492279,399.169037 496.671082,407.234528 483.550934,405.585205 
	C472.279175,404.168274 464.445190,398.430176 461.179260,386.750183 
M489.755035,397.610077 
	C498.834991,395.136322 503.368622,389.236237 503.041748,380.318878 
	C502.748596,372.321716 497.374847,366.141113 489.520630,364.767578 
	C481.221008,363.316162 473.722076,366.991791 470.938477,374.568848 
	C465.803314,388.546722 476.422455,399.697632 489.755035,397.610077 
z"/>
<path fill="#CCAFF5" opacity="1.000000" stroke="none" 
	d="
M557.133911,397.796692 
	C558.718567,400.135193 560.122925,402.161865 561.577332,404.260712 
	C553.740784,406.024170 552.535400,406.104218 549.067871,399.667938 
	C544.889832,391.912872 539.217041,389.130432 530.413391,391.717346 
	C530.413391,395.674927 530.413391,400.065430 530.413391,404.731079 
	C527.244873,404.731079 524.521790,404.731079 521.534607,404.731079 
	C521.534607,389.091156 521.534607,373.537292 521.534607,356.921326 
	C530.728027,357.348480 539.859619,357.118927 548.773315,358.402313 
	C555.413940,359.358368 559.958374,364.040680 561.027954,371.135925 
	C562.291565,379.518585 559.722290,384.518890 551.465454,389.540894 
	C553.296265,392.190887 555.125000,394.837860 557.133911,397.796692 
M546.878296,382.814056 
	C551.465454,380.662476 552.900635,376.920685 552.112732,372.166199 
	C551.421692,367.996307 548.516052,365.662842 544.667847,365.272980 
	C539.988892,364.798950 535.225281,365.160339 530.505859,365.160339 
	C530.505859,371.549316 530.505859,377.582611 530.505859,384.298279 
	C535.952576,383.854095 541.019958,383.440826 546.878296,382.814056 
z"/>
<path fill="#CCAFF5" opacity="1.000000" stroke="none" 
	d="
M437.457153,405.458130 
	C426.886963,406.378082 418.010742,403.749786 412.177612,394.983429 
	C406.799103,386.900391 406.426422,378.130432 410.950409,369.403992 
	C418.595398,354.657379 441.746826,351.991119 452.677307,364.438141 
	C451.044189,366.095856 449.417572,367.746979 447.570557,369.621826 
	C443.070312,366.114166 438.127441,363.768127 432.169739,364.553375 
	C422.072845,365.884155 416.091125,373.237091 417.069397,383.219513 
	C417.951447,392.219757 425.649445,398.434906 435.264832,397.909973 
	C442.910461,397.492584 443.986572,396.381378 443.986786,388.903015 
	C443.986847,386.281219 443.986755,383.659454 443.986755,380.860779 
	C446.864044,380.860779 449.309265,380.860779 452.326233,380.860779 
	C452.326233,386.572510 452.455414,392.181274 452.222290,397.774963 
	C452.172882,398.960266 451.052917,400.693237 449.991791,401.138306 
	C446.055511,402.789429 441.937744,404.007904 437.457153,405.458130 
z"/>
<path fill="#CCAFF5" opacity="1.000000" stroke="none" 
	d="
M575.166016,401.398407 
	C573.137024,407.679932 568.549011,404.029968 564.440002,405.174957 
	C571.541687,389.311401 578.248962,374.192657 585.104126,359.141296 
	C586.339905,356.428101 594.125000,356.273285 595.367249,358.970764 
	C602.350159,374.133759 609.150574,389.380859 616.080994,404.749573 
	C607.174500,405.381805 607.073181,405.423431 603.851807,397.584778 
	C602.754517,394.914795 601.378845,393.809845 598.354492,393.930969 
	C591.720398,394.196655 585.068420,394.013306 578.380737,394.013306 
	C577.297974,396.496735 576.309998,398.762695 575.166016,401.398407 
M597.139099,382.374420 
	C594.970947,377.307831 592.802856,372.241272 590.230957,366.231171 
	C587.085327,373.636078 584.349182,380.076996 581.460449,386.877106 
	C587.646729,386.877106 593.101624,386.877106 598.879822,386.877106 
	C598.383728,385.478821 597.953613,384.266388 597.139099,382.374420 
z"/>
<path fill="#CCAFF5" opacity="1.000000" stroke="none" 
	d="
M368.863159,372.730194 
	C370.827301,368.286896 372.440277,364.063354 374.691650,360.213104 
	C375.527100,358.784271 377.876953,357.440979 379.505615,357.476105 
	C381.595001,357.521210 384.828857,358.437256 385.543213,359.940826 
	C392.514984,374.614716 399.063751,389.489532 405.759186,404.365509 
	C397.233093,405.979675 396.984833,406.074524 394.031494,398.343536 
	C392.640350,394.701874 390.702545,393.536011 387.027802,393.950623 
	C384.231110,394.266113 381.332520,394.309906 378.545349,393.955200 
	C371.429779,393.049652 366.330017,394.402191 364.389465,402.585907 
	C363.228668,407.481293 358.402039,403.966248 354.080444,405.589752 
	C359.311066,394.016541 364.038177,383.557343 368.863159,372.730194 
M382.014923,370.586578 
	C381.488007,369.485016 380.961060,368.383453 380.026215,366.429108 
	C376.972504,373.592651 374.232574,380.020111 371.397064,386.671753 
	C377.551819,386.671753 383.036987,386.671753 388.879761,386.671753 
	C386.563599,381.273407 384.420807,376.279114 382.014923,370.586578 
z"/>
<path fill="#E4E9EA" opacity="1.000000" stroke="none" 
	d="
M419.549561,424.361572 
	C429.331757,425.859222 436.051117,430.842560 438.861298,439.911469 
	C442.159454,450.555145 440.179626,460.267853 431.431061,468.567108 
	C433.404419,471.187286 435.356659,473.779480 437.308929,476.371674 
	C437.246887,476.832458 437.184845,477.293213 437.122833,477.753998 
	C435.912476,477.513763 434.497009,477.582062 433.546875,476.950439 
	C432.502991,476.256500 431.768585,474.986816 431.109253,473.846619 
	C429.553009,471.155548 427.904022,470.660278 424.675446,471.774017 
	C413.309235,475.694916 401.055084,470.785797 396.105469,460.865387 
	C390.648163,449.927429 393.546021,435.686584 402.691193,428.800873 
	C407.553192,425.140045 413.134033,423.933014 419.549561,424.361572 
M425.526093,460.972961 
	C426.709900,462.443054 427.893707,463.913147 429.108795,465.422089 
	C438.262299,456.480988 439.040314,442.701324 431.335846,433.936401 
	C424.950958,426.672577 412.362793,425.715698 404.637177,431.906921 
	C396.210419,438.660004 394.682770,452.369019 400.986359,461.700409 
	C406.011536,469.139343 418.792297,472.155365 425.702087,466.936859 
	C423.220886,463.516174 420.735016,460.089081 417.973785,456.282410 
	C422.922607,454.161011 422.926300,459.032440 425.526093,460.972961 
z"/>
<path fill="#E4E9EA" opacity="1.000000" stroke="none" 
	d="
M545.036377,426.479004 
	C546.116455,425.559326 547.173401,424.737396 548.259949,424.696198 
	C552.410461,424.538666 556.571045,424.590088 560.726868,424.641235 
	C569.415100,424.748138 574.813965,428.442566 576.585022,435.423798 
	C578.360291,442.422028 575.453918,447.960785 567.382629,452.521515 
	C571.033264,458.888031 574.686829,465.259552 578.340332,471.631042 
	C578.034485,472.018677 577.728699,472.406311 577.422852,472.793945 
	C576.099426,471.892120 574.346130,471.273041 573.532471,470.035919 
	C570.986877,466.165588 568.434387,462.222015 566.567993,458.004395 
	C564.647644,453.664948 561.784912,452.273285 557.292542,452.823792 
	C554.549744,453.159912 551.732178,452.885834 548.915344,452.885834 
	C548.598450,459.584747 548.320740,465.802185 547.911987,472.011047 
	C547.902222,472.160339 546.429016,472.213287 545.026733,472.386902 
	C545.026733,457.067169 545.026733,442.001221 545.036377,426.479004 
M572.328735,443.370148 
	C574.395142,435.083130 571.046143,428.963196 563.554199,428.226288 
	C558.655029,427.744415 553.670044,428.135376 548.872803,428.135376 
	C548.872803,435.369385 548.872803,442.124329 548.872803,449.159790 
	C554.120667,449.159790 559.180481,449.741882 564.010437,448.939911 
	C566.873535,448.464478 569.374084,445.805359 572.328735,443.370148 
z"/>
<path fill="#F3F3F3" opacity="1.000000" stroke="none" 
	d="
M604.963623,428.018463 
	C600.153015,428.018463 595.835632,428.018463 591.357544,428.018463 
	C591.357544,434.112305 591.357544,439.888458 591.357544,446.020142 
	C598.146545,446.020142 604.774658,446.020142 611.402771,446.020142 
	C611.619446,446.536194 611.836060,447.052246 612.052734,447.568268 
	C610.793945,448.224640 609.555115,449.398041 608.272888,449.447601 
	C602.809814,449.658722 597.333801,449.537354 591.530762,449.537354 
	C591.530762,456.154449 591.530762,462.362000 591.530762,468.781799 
	C599.241699,468.781799 606.886169,468.781799 614.530640,468.781799 
	C614.858765,469.164398 615.186890,469.546997 615.515015,469.929626 
	C614.588074,470.730011 613.676392,472.203735 612.731934,472.225128 
	C604.599365,472.408997 596.460876,472.330811 588.066528,472.330811 
	C588.066528,456.472809 588.066528,440.885986 588.066528,425.145386 
	C597.058777,425.145386 606.099243,425.135101 615.138306,425.243256 
	C615.273743,425.244873 615.391602,426.715485 615.600769,428.018463 
	C612.046387,428.018463 608.751648,428.018463 604.963623,428.018463 
z"/>
<path fill="#E4E9EA" opacity="1.000000" stroke="none" 
	d="
M363.353760,447.614075 
	C357.995117,445.429108 355.325256,441.901093 355.666626,436.307526 
	C355.978333,431.200134 359.071014,427.190521 364.316406,425.277679 
	C371.458466,422.673187 379.949158,424.927734 384.023438,430.748840 
	C384.702393,431.718933 384.419647,433.362152 383.897186,434.890076 
	C379.403381,430.084656 374.771851,427.048645 368.246704,427.985168 
	C363.170593,428.713715 359.492706,431.992859 359.148102,436.400848 
	C358.753845,441.444336 362.230225,443.427887 366.134216,444.827332 
	C370.184906,446.279236 374.393005,447.293304 378.439026,448.756622 
	C383.189880,450.474884 386.307129,453.743134 386.475922,459.048401 
	C386.652588,464.600555 383.939117,468.549377 379.097687,471.056000 
	C371.448120,475.016541 360.663055,473.052307 355.444855,466.589233 
	C354.606567,465.550995 354.716125,463.747559 355.079346,462.020569 
	C360.796173,468.128357 367.112183,471.043671 375.064789,468.882965 
	C379.346252,467.719696 382.580231,465.108978 382.907318,460.311737 
	C383.237976,455.462402 379.992371,453.231323 375.934845,451.860199 
	C371.855499,450.481628 367.755829,449.163147 363.353760,447.614075 
z"/>
<path fill="#E4E9EA" opacity="1.000000" stroke="none" 
	d="
M499.367126,471.114563 
	C498.156158,471.764435 497.112915,472.115417 495.116882,472.786957 
	C501.254852,456.660858 506.918610,441.655121 512.761353,426.719391 
	C513.140930,425.749023 514.944214,424.714905 515.996948,424.800171 
	C517.087219,424.888489 518.606323,426.098877 519.018677,427.171753 
	C524.712585,441.985931 530.247864,456.861084 535.894348,471.914185 
	C530.591309,473.563202 531.241821,468.934143 530.076660,466.641022 
	C528.734619,463.999939 527.904114,461.098938 526.749451,458.040802 
	C520.109863,458.040802 513.472107,457.917236 506.847412,458.154724 
	C505.654816,458.197449 503.990326,459.478455 503.451050,460.617371 
	C501.897125,463.899109 500.807098,467.400574 499.367126,471.114563 
M524.773682,453.962067 
	C521.840332,445.454865 518.906921,436.947662 515.690857,427.620483 
	C512.199829,437.053070 509.078491,445.486877 505.789459,454.373779 
	C512.363586,454.373779 518.171509,454.373779 524.773682,453.962067 
z"/>
<path fill="#E4E9EA" opacity="1.000000" stroke="none" 
	d="
M454.581421,444.990295 
	C454.615173,448.814880 454.454163,452.157593 454.720612,455.465851 
	C455.417358,464.116943 461.449432,469.491821 469.918152,469.229645 
	C477.940094,468.981323 483.856659,463.159576 484.040161,454.801483 
	C484.255402,444.997375 484.090485,435.184875 485.181885,424.337555 
	C486.041473,425.238739 487.634796,426.129517 487.647705,427.042633 
	C487.784302,436.690002 488.176575,446.377289 487.488678,455.981232 
	C486.711792,466.827545 478.387146,473.545074 467.912170,472.884735 
	C457.957581,472.257202 451.146271,464.888397 450.992493,454.270874 
	C450.852814,444.625977 450.962921,434.977478 452.088501,424.362152 
	C452.919281,425.414398 454.421753,426.437836 454.468262,427.523682 
	C454.710205,433.171265 454.581238,438.834747 454.581421,444.990295 
z"/>
<path fill="#040404" opacity="1.000000" stroke="none" 
	d="
M489.351501,397.700531 
	C476.422455,399.697632 465.803314,388.546722 470.938477,374.568848 
	C473.722076,366.991791 481.221008,363.316162 489.520630,364.767578 
	C497.374847,366.141113 502.748596,372.321716 503.041748,380.318878 
	C503.368622,389.236237 498.834991,395.136322 489.351501,397.700531 
z"/>
<path fill="#040404" opacity="1.000000" stroke="none" 
	d="
M546.482849,382.920807 
	C541.019958,383.440826 535.952576,383.854095 530.505859,384.298279 
	C530.505859,377.582611 530.505859,371.549316 530.505859,365.160339 
	C535.225281,365.160339 539.988892,364.798950 544.667847,365.272980 
	C548.516052,365.662842 551.421692,367.996307 552.112732,372.166199 
	C552.900635,376.920685 551.465454,380.662476 546.482849,382.920807 
z"/>
<path fill="#040404" opacity="1.000000" stroke="none" 
	d="
M597.331299,382.714172 
	C597.953613,384.266388 598.383728,385.478821 598.879822,386.877106 
	C593.101624,386.877106 587.646729,386.877106 581.460449,386.877106 
	C584.349182,380.076996 587.085327,373.636078 590.230957,366.231171 
	C592.802856,372.241272 594.970947,377.307831 597.331299,382.714172 
z"/>
<path fill="#040404" opacity="1.000000" stroke="none" 
	d="
M382.146484,370.935699 
	C384.420807,376.279114 386.563599,381.273407 388.879761,386.671753 
	C383.036987,386.671753 377.551819,386.671753 371.397064,386.671753 
	C374.232574,380.020111 376.972504,373.592651 380.026215,366.429108 
	C380.961060,368.383453 381.488007,369.485016 382.146484,370.935699 
z"/>
<path fill="#040404" opacity="1.000000" stroke="none" 
	d="
M425.290863,460.695740 
	C422.926300,459.032440 422.922607,454.161011 417.973785,456.282410 
	C420.735016,460.089081 423.220886,463.516174 425.702087,466.936859 
	C418.792297,472.155365 406.011536,469.139343 400.986359,461.700409 
	C394.682770,452.369019 396.210419,438.660004 404.637177,431.906921 
	C412.362793,425.715698 424.950958,426.672577 431.335846,433.936401 
	C439.040314,442.701324 438.262299,456.480988 429.108795,465.422089 
	C427.893707,463.913147 426.709900,462.443054 425.290863,460.695740 
z"/>
<path fill="#000000" opacity="1.000000" stroke="none" 
	d="
M572.183228,443.749146 
	C569.374084,445.805359 566.873535,448.464478 564.010437,448.939911 
	C559.180481,449.741882 554.120667,449.159790 548.872803,449.159790 
	C548.872803,442.124329 548.872803,435.369385 548.872803,428.135376 
	C553.670044,428.135376 558.655029,427.744415 563.554199,428.226288 
	C571.046143,428.963196 574.395142,435.083130 572.183228,443.749146 
z"/>
<path fill="#040404" opacity="1.000000" stroke="none" 
	d="
M524.376587,454.167908 
	C518.171509,454.373779 512.363586,454.373779 505.789459,454.373779 
	C509.078491,445.486877 512.199829,437.053070 515.690857,427.620483 
	C518.906921,436.947662 521.840332,445.454865 524.376587,454.167908 
z"/>
</svg>